<svg width="13" height="12" viewBox="0 0 13 12" fill="none" xmlns="http://www.w3.org/2000/svg">
<path d="M7.74878 0.707764C7.88577 0.707833 8.01832 0.749026 8.13062 0.823975L8.23511 0.909912L12.7351 5.40991C12.7992 5.47387 12.8508 5.54988 12.8855 5.63354C12.92 5.71707 12.9374 5.80682 12.9373 5.89721C12.9371 5.98772 12.9194 6.07736 12.8845 6.16089C12.8671 6.20277 12.8453 6.24256 12.8201 6.28003L12.7341 6.38452L8.23413 10.8845C8.10497 11.0136 7.92942 11.0857 7.74683 11.0857C7.56443 11.0856 7.38956 11.0134 7.2605 10.8845C7.13133 10.7553 7.05836 10.5799 7.05835 10.3972C7.05835 10.2602 7.09966 10.1277 7.17456 10.0154L7.2605 9.90991L10.4792 6.69214L10.5867 6.58569H1.2478C1.11087 6.58569 0.97818 6.54443 0.865967 6.46948L0.761475 6.38354C0.632819 6.25473 0.560403 6.08025 0.560303 5.89819C0.560303 5.76148 0.600817 5.62845 0.675537 5.51636L0.761475 5.41186C0.890406 5.28293 1.06547 5.21069 1.2478 5.21069H10.5857L10.4792 5.10327L7.26147 1.88354C7.1323 1.75437 7.05933 1.57892 7.05933 1.39624C7.05941 1.21374 7.13247 1.03899 7.26147 0.909912C7.39065 0.780737 7.5661 0.707764 7.74878 0.707764Z" fill="#5934C5" stroke="#7A55FD" stroke-width="0.125"/>
</svg>
