<svg width="60" height="61" viewBox="0 0 60 61" fill="none" xmlns="http://www.w3.org/2000/svg">
<path d="M28.7836 55.0626C25.8387 58.1462 22.6938 60.4302 18.4837 59.1374C13.3148 57.5502 11.6527 52.9587 11.7408 47.1074C7.33125 47.2778 3.32467 46.7767 1.17515 42.787C-1.38941 38.0269 0.652367 33.5911 4.82473 29.488C1.56583 26.5121 -0.934285 23.3412 0.337936 18.9911C1.85574 13.8017 6.42408 12.0785 12.2757 12.0882C12.0461 7.68078 12.4929 3.66724 16.4538 1.46432C21.1792 -1.16368 25.6419 0.818473 29.8005 4.93545C32.7326 1.6369 35.8697 -0.905664 40.2365 0.308298C45.446 1.75658 47.2307 6.30174 47.2991 12.1534C51.7032 11.8647 55.7225 12.2578 57.9783 16.1891C60.6695 20.8792 58.7472 25.3683 54.6857 29.5819C58.0229 32.4694 60.6067 35.5723 59.4514 39.9545C58.0217 45.3773 53.2115 47.161 47.0438 47.1847C46.878 47.1409 46.7142 47.0935 46.5524 47.0421C46.8289 51.991 46.6479 56.6305 42.2246 58.9754C37.3819 61.5427 32.905 59.3787 28.7836 55.0626Z" fill="url(#paint0_radial_1_98)"/>
<defs>
<radialGradient id="paint0_radial_1_98" cx="0" cy="0" r="1" gradientUnits="userSpaceOnUse" gradientTransform="translate(3.96228 53.8177) rotate(132.813) scale(68.0508 68.2528)">
<stop stop-color="#FF93AB"/>
<stop offset="0.826964" stop-color="#FFA552"/>
</radialGradient>
</defs>
</svg>
